<?xml version="1.0" encoding="UTF-8"?><svg id="Layer_1" xmlns="http://www.w3.org/2000/svg" viewBox="0 0 1290.42 288"><defs><style>.cls-1{fill:#bd2d87;stroke-width:0px;}</style></defs><polygon class="cls-1" points="264.63 48.85 264.63 262.92 193.28 262.92 193.28 193 123.36 262.92 50.59 262.92 26.79 239.14 26.79 139.72 58.2 108.31 152.84 108.31 152.84 115.47 98.14 170.18 98.14 187.29 177.12 108.31 193.28 108.31 193.28 96.43 26.79 96.43 26.79 48.85 50.59 25.08 240.85 25.08 264.63 48.85"/><path class="cls-1" d="M514.35,262.92h-71.35V78.36s-45.67-46.14-45.67-46.14v-7.14h93.71s23.31,23.78,23.31,23.78v214.06ZM347.86,262.92h-71.35V48.86s23.78-23.78,23.78-23.78h72.78s58.03,58.03,58.03,58.03v96.56h-4.28s-78.96-78.96-78.96-78.96v162.21Z"/><path class="cls-1" d="M1263.63,262.92h-71.35V78.36s-45.67-46.14-45.67-46.14v-7.14h93.71s23.31,23.78,23.31,23.78v214.06ZM1097.14,262.92h-71.35V48.86s23.78-23.78,23.78-23.78h72.78s58.03,58.03,58.03,58.03v96.56h-4.28s-78.96-78.96-78.96-78.96v162.21Z"/><path class="cls-1" d="M776.06,183.96l64.22-64.22h7.14v71.83h95.14v-95.14h-95.61l-47.09,47.09h-23.79v-77.54l40.91-40.91h173.15l23.78,23.78v173.15l-40.91,40.91h-173.15l-23.79-23.78v-55.18Z"/><path class="cls-1" d="M526.24,96.43V25.08h119.02v23.78l-47.57,47.57h-71.45ZM715.18,96.43l-34.25,34.25v132.24h-71.35V101.19l76.11-76.11h78.49v71.35h-49Z"/></svg>