<svg width="156" height="27" viewBox="0 0 156 27" fill="none" xmlns="http://www.w3.org/2000/svg">
<path d="M139.254 26.1031V1.9353H155.539V6.14815H144.364V11.9069H154.701V16.1197H144.364V21.8903H155.586V26.1031H139.254Z" fill="#D9D9D9"/>
<path d="M120.29 1.9353L125.164 10.1722H125.353L130.25 1.9353H136.021L128.645 14.0192L136.186 26.1031H130.309L125.353 17.8544H125.164L120.208 26.1031H114.355L121.919 14.0192L114.496 1.9353H120.29Z" fill="#D9D9D9"/>
<path d="M95.1521 26.1031V1.9353H111.437V6.14815H100.262V11.9069H110.599V16.1197H100.262V21.8903H111.484V26.1031H95.1521Z" fill="#D9D9D9"/>
<path d="M79.4128 15.6241V26.1031H74.3857V7.97725H79.1768V11.1752H79.3892C79.7905 10.121 80.4631 9.28713 81.4072 8.6735C82.3512 8.05199 83.4959 7.74124 84.8412 7.74124C86.0999 7.74124 87.1974 8.01659 88.1336 8.56729C89.0697 9.11799 89.7975 9.9047 90.3167 10.9274C90.8359 11.9423 91.0955 13.1538 91.0955 14.562V26.1031H86.0684V15.4589C86.0763 14.3496 85.7931 13.4842 85.2188 12.8627C84.6445 12.2334 83.8538 11.9187 82.8468 11.9187C82.1703 11.9187 81.5724 12.0642 81.0531 12.3553C80.5418 12.6464 80.1405 13.0712 79.8495 13.6298C79.5662 14.1805 79.4207 14.8453 79.4128 15.6241Z" fill="url(#paint0_linear_31_4300)"/>
<path d="M65.3316 26.1031V7.97727H70.3587V26.1031H65.3316ZM67.857 5.64073C67.1096 5.64073 66.4684 5.39291 65.9335 4.89728C65.4064 4.39379 65.1428 3.79195 65.1428 3.09178C65.1428 2.39947 65.4064 1.8055 65.9335 1.30987C66.4684 0.806375 67.1096 0.554626 67.857 0.554626C68.6044 0.554626 69.2416 0.806375 69.7687 1.30987C70.3037 1.8055 70.5711 2.39947 70.5711 3.09178C70.5711 3.79195 70.3037 4.39379 69.7687 4.89728C69.2416 5.39291 68.6044 5.64073 67.857 5.64073Z" fill="url(#paint1_linear_31_4300)"/>
<path d="M51.2239 26.4454C50.0675 26.4454 49.0369 26.2447 48.1321 25.8435C47.2274 25.4344 46.5115 24.8326 45.9844 24.038C45.4652 23.2356 45.2056 22.2364 45.2056 21.0406C45.2056 20.0336 45.3904 19.1879 45.7602 18.5035C46.13 17.819 46.6335 17.2683 47.2707 16.8514C47.9079 16.4344 48.6317 16.1197 49.442 15.9073C50.2602 15.6949 51.1177 15.5454 52.0146 15.4589C53.0688 15.3488 53.9184 15.2465 54.5635 15.1521C55.2086 15.0498 55.6767 14.9003 55.9678 14.7037C56.2589 14.507 56.4044 14.2159 56.4044 13.8304V13.7596C56.4044 13.0122 56.1684 12.434 55.6964 12.0249C55.2322 11.6158 54.5714 11.4113 53.7139 11.4113C52.8092 11.4113 52.0893 11.6119 51.5543 12.0131C51.0194 12.4065 50.6654 12.9021 50.4923 13.5L45.8428 13.1224C46.0788 12.021 46.543 11.069 47.2353 10.2666C47.9276 9.45628 48.8205 8.83477 49.914 8.40208C51.0154 7.96152 52.2899 7.74124 53.7375 7.74124C54.7445 7.74124 55.7082 7.85925 56.6286 8.09526C57.557 8.33128 58.3791 8.6971 59.095 9.19273C59.8188 9.68836 60.3891 10.3256 60.8061 11.1044C61.223 11.8754 61.4315 12.7998 61.4315 13.8776V26.1031H56.664V23.5896H56.5224C56.2314 24.156 55.8419 24.6556 55.3542 25.0883C54.8664 25.5131 54.2803 25.8474 53.5959 26.0913C52.9114 26.3273 52.1208 26.4454 51.2239 26.4454ZM52.6636 22.9759C53.4031 22.9759 54.0561 22.8304 54.6225 22.5393C55.189 22.2404 55.6335 21.8391 55.956 21.3356C56.2786 20.8322 56.4398 20.2618 56.4398 19.6245V17.701C56.2825 17.8033 56.0661 17.8977 55.7908 17.9842C55.5233 18.0629 55.2204 18.1377 54.8821 18.2085C54.5439 18.2714 54.2056 18.3304 53.8673 18.3855C53.529 18.4327 53.2222 18.4759 52.9468 18.5153C52.3568 18.6018 51.8415 18.7395 51.4009 18.9283C50.9604 19.1171 50.6182 19.3728 50.3743 19.6954C50.1304 20.01 50.0085 20.4034 50.0085 20.8754C50.0085 21.5599 50.2563 22.083 50.7519 22.4449C51.2554 22.7989 51.8926 22.9759 52.6636 22.9759Z" fill="url(#paint2_linear_31_4300)"/>
<path d="M30.3455 15.6241V26.1031H25.3184V1.9353H30.2038V11.1753H30.4163C30.8254 10.1053 31.4862 9.26747 32.3988 8.6617C33.3114 8.04806 34.456 7.74125 35.8328 7.74125C37.0915 7.74125 38.189 8.0166 39.1252 8.5673C40.0692 9.11013 40.8009 9.89291 41.3201 10.9156C41.8472 11.9305 42.1068 13.146 42.099 14.5621V26.1031H37.0719V15.4589C37.0797 14.3418 36.7965 13.4725 36.2222 12.851C35.6558 12.2294 34.8612 11.9187 33.8385 11.9187C33.154 11.9187 32.5483 12.0642 32.0212 12.3553C31.5019 12.6464 31.0928 13.0712 30.7939 13.6298C30.5028 14.1805 30.3533 14.8453 30.3455 15.6241Z" fill="url(#paint3_linear_31_4300)"/>
<path d="M21.7487 10.3964H16.58C16.4856 9.7277 16.2928 9.13374 16.0017 8.6145C15.7107 8.08741 15.337 7.63898 14.8807 7.26923C14.4244 6.89947 13.8973 6.61625 13.2994 6.41958C12.7094 6.2229 12.0682 6.12456 11.3759 6.12456C10.125 6.12456 9.0354 6.43531 8.10708 7.05681C7.17876 7.67045 6.45892 8.5673 5.94755 9.74737C5.43619 10.9196 5.18051 12.3435 5.18051 14.0192C5.18051 15.7421 5.43619 17.1897 5.94755 18.3619C6.46678 19.5341 7.19056 20.4191 8.11888 21.017C9.0472 21.6149 10.1211 21.9139 11.3405 21.9139C12.0249 21.9139 12.6582 21.8234 13.2404 21.6425C13.8304 21.4615 14.3536 21.198 14.8099 20.8518C15.2662 20.4978 15.6438 20.0691 15.9427 19.5656C16.2496 19.0621 16.462 18.4878 16.58 17.8427L21.7487 17.8663C21.6149 18.9755 21.2806 20.0454 20.7456 21.076C20.2185 22.0988 19.5066 23.0153 18.6097 23.8256C17.7207 24.6281 16.6587 25.2653 15.4235 25.7373C14.1962 26.2015 12.8077 26.4336 11.2579 26.4336C9.10227 26.4336 7.17483 25.9458 5.47552 24.9703C3.78409 23.9947 2.44668 22.5826 1.46329 20.7338C0.487762 18.885 0 16.6468 0 14.0192C0 11.3837 0.495629 9.1416 1.48689 7.29283C2.47815 5.44405 3.82343 4.03583 5.52273 3.06818C7.22203 2.09265 9.13374 1.60489 11.2579 1.60489C12.6582 1.60489 13.9563 1.80157 15.1521 2.19492C16.3558 2.58828 17.4218 3.16258 18.3501 3.91783C19.2784 4.6652 20.0337 5.58172 20.6158 6.66739C21.2059 7.75305 21.5835 8.99606 21.7487 10.3964Z" fill="url(#paint4_linear_31_4300)"/>
<defs>
<linearGradient id="paint0_linear_31_4300" x1="2.63203" y1="-33.11" x2="95.4037" y2="42.6893" gradientUnits="userSpaceOnUse">
<stop stop-color="#B235FF"/>
<stop offset="1" stop-color="#001447"/>
</linearGradient>
<linearGradient id="paint1_linear_31_4300" x1="2.63201" y1="-33.11" x2="95.4037" y2="42.6893" gradientUnits="userSpaceOnUse">
<stop stop-color="#B235FF"/>
<stop offset="1" stop-color="#001447"/>
</linearGradient>
<linearGradient id="paint2_linear_31_4300" x1="2.63204" y1="-33.11" x2="95.4037" y2="42.6893" gradientUnits="userSpaceOnUse">
<stop stop-color="#B235FF"/>
<stop offset="1" stop-color="#001447"/>
</linearGradient>
<linearGradient id="paint3_linear_31_4300" x1="2.63196" y1="-33.11" x2="95.4036" y2="42.6893" gradientUnits="userSpaceOnUse">
<stop stop-color="#B235FF"/>
<stop offset="1" stop-color="#001447"/>
</linearGradient>
<linearGradient id="paint4_linear_31_4300" x1="2.632" y1="-33.11" x2="95.4037" y2="42.6893" gradientUnits="userSpaceOnUse">
<stop stop-color="#B235FF"/>
<stop offset="1" stop-color="#001447"/>
</linearGradient>
</defs>
</svg>
