<?xml version="1.0" encoding="utf-8"?>
<!-- Generator: Adobe Illustrator 28.2.0, SVG Export Plug-In . SVG Version: 6.00 Build 0)  -->
<svg version="1.1" id="Layer_1" xmlns="http://www.w3.org/2000/svg" xmlns:xlink="http://www.w3.org/1999/xlink" x="0px" y="0px"
	 viewBox="0 0 1294.32 213.04" style="enable-background:new 0 0 1294.32 213.04;" xml:space="preserve">
<style type="text/css">
	.st0{fill:#1B1C1E;}
	.st1{fill:#BD2D87;}
	.st2{fill:#FFFFFF;}
</style>
<g>
	<g>
		<path class="st2" d="M396.71,191.03H233.35V22.01h163.36c55.94,0,93.31,31.65,93.31,84.62S452.64,191.03,396.71,191.03z
			 M439.03,106.63c0-29.18-14.85-45.79-44.55-45.79h-109.9v91.35h109.9C424.18,152.19,439.03,135.81,439.03,106.63z"/>
		<path class="st2" d="M630.88,22.01l99.75,169.01h-55.2l-17.08-29.63H546.23l-17.08,29.63h-55.2l100-169.01H630.88z M637.31,124.59
			l-34.9-60.38l-35.15,60.38H637.31z"/>
		<path class="st2" d="M746.17,22.01h51.24v169.01h-51.24V22.01z"/>
		<path class="st2" d="M1022.81,136.71c0,29.63-20.05,54.32-65.1,54.32h-76.48c-50,0-67.32-25.36-67.32-55.44h51.24
			c0,10.77,5.2,16.61,18.32,16.61h71.78c11.39,0,16.58-3.14,16.58-11.67c0-8.98-3.47-14.59-18.56-14.59h-71.53
			c-49.5,0-67.82-22.89-67.82-51.4c0-30.97,26.73-52.52,69.55-52.52h68.31c49.5,0,68.56,25.14,68.56,55.66H969.6
			c0-13.24-7.67-16.83-20.05-16.83h-67.82c-10.39,0-16.58,3.82-16.58,12.35c0,8.75,5.94,13.92,20.05,13.92h70.54
			C1001.53,87.1,1022.81,105.51,1022.81,136.71z"/>
		<path class="st2" d="M1260.91,22.01l-98.26,103.47v65.54h-50.99v-65.54l-98.51-103.47h59.16l64.11,69.36L1202,22.01H1260.91z"/>
	</g>
	<g>
		<path class="st1" d="M166.74,22.01v35.68h35.68v0C202.42,37.99,186.45,22.01,166.74,22.01L166.74,22.01z"/>
		<path class="st1" d="M120.06,22.01c1.47,19.95,18.12,35.68,38.45,35.68h4.15V22.01H120.06z"/>
		<path class="st1" d="M115.77,22.01h-42.6v35.68h4.15C97.64,57.69,114.29,41.96,115.77,22.01z"/>
		<path class="st1" d="M33.4,57.69h35.68V22.01h-0.01C49.38,22.01,33.4,37.99,33.4,57.69L33.4,57.69z"/>
		<path class="st1" d="M69.09,65.92v-4.14H33.4v42.59C53.36,102.9,69.09,86.24,69.09,65.92z"/>
		<path class="st1" d="M202.42,104.37V61.77h-35.68v4.14C166.74,86.24,182.47,102.9,202.42,104.37z"/>
		<path class="st1" d="M162.66,65.92v-4.14h-4.15c-21.29,0-38.56,17.26-38.56,38.56v4.14h4.14
			C145.4,104.48,162.66,87.21,162.66,65.92z"/>
		<path class="st1" d="M77.32,61.77h-4.15v4.14c0,21.29,17.26,38.56,38.56,38.56h4.15v-4.14C115.87,79.03,98.61,61.77,77.32,61.77z"
			/>
		<path class="st1" d="M166.74,147.11v4.15h35.68v-42.6C182.47,110.13,166.74,126.79,166.74,147.11z"/>
		<path class="st1" d="M124.1,108.55h-4.14v4.15c0,21.29,17.26,38.56,38.56,38.56h4.15v-4.15
			C162.66,125.82,145.4,108.55,124.1,108.55z"/>
		<path class="st1" d="M115.87,112.71v-4.15h-4.15c-21.29,0-38.56,17.26-38.56,38.56v4.15h4.15
			C98.61,151.26,115.87,134,115.87,112.71z"/>
		<path class="st1" d="M33.4,108.66v42.6h35.68v-4.15C69.09,126.79,53.36,110.13,33.4,108.66z"/>
		<path class="st1" d="M202.42,155.34h-35.68v35.68h0C186.45,191.02,202.42,175.05,202.42,155.34L202.42,155.34z"/>
		<path class="st1" d="M158.51,155.34c-20.33,0-36.98,15.73-38.45,35.68h42.6v-35.68H158.51z"/>
		<path class="st1" d="M77.32,155.34h-4.15v35.68h42.6C114.3,171.07,97.64,155.34,77.32,155.34z"/>
		<path class="st1" d="M33.4,155.34L33.4,155.34c0,19.71,15.98,35.68,35.68,35.68h0v-35.68H33.4z"/>
	</g>
</g>
</svg>
