<?xml version="1.0" encoding="utf-8"?>
<!-- Generator: Adobe Illustrator 28.2.0, SVG Export Plug-In . SVG Version: 6.00 Build 0)  -->
<svg version="1.1" id="Layer_1" xmlns="http://www.w3.org/2000/svg" xmlns:xlink="http://www.w3.org/1999/xlink" x="0px" y="0px"
	 viewBox="0 0 216 216" style="enable-background:new 0 0 216 216;" xml:space="preserve">
<style type="text/css">
	.st0{fill:#1B1C1E;}
	.st1{fill:#BD2D87;}
	.st2{fill:#FFFFFF;}
</style>
<g>
	<path class="st2" d="M166.24,7.19v42.56h42.57v0C208.81,26.25,189.76,7.19,166.24,7.19L166.24,7.19z"/>
	<path class="st2" d="M110.56,7.19c1.76,23.79,21.62,42.56,45.87,42.56h4.95V7.19H110.56z"/>
	<path class="st2" d="M105.44,7.19H54.62v42.56h4.95C83.82,49.75,103.68,30.99,105.44,7.19z"/>
	<path class="st2" d="M7.19,49.75h42.57V7.19h-0.01C26.24,7.19,7.19,26.25,7.19,49.75L7.19,49.75z"/>
	<path class="st2" d="M49.76,59.57v-4.94H7.19v50.81C30.99,103.68,49.76,83.81,49.76,59.57z"/>
	<path class="st2" d="M208.81,105.43V54.62h-42.57v4.94C166.24,83.81,185.01,103.68,208.81,105.43z"/>
	<path class="st2" d="M161.38,59.57v-4.94h-4.95c-25.4,0-46,20.59-46,46v4.94h4.94C140.79,105.56,161.38,84.97,161.38,59.57z"/>
	<path class="st2" d="M59.57,54.62h-4.95v4.94c0,25.4,20.59,46,46,46h4.95v-4.94C105.57,75.21,84.97,54.62,59.57,54.62z"/>
	<path class="st2" d="M166.24,156.42v4.95h42.57v-50.82C185.01,112.31,166.24,132.18,166.24,156.42z"/>
	<path class="st2" d="M115.38,110.43h-4.94v4.95c0,25.4,20.59,46,46,46h4.95v-4.95C161.38,131.02,140.79,110.43,115.38,110.43z"/>
	<path class="st2" d="M105.57,115.38v-4.95h-4.95c-25.4,0-46,20.59-46,46v4.95h4.95C84.97,161.38,105.57,140.78,105.57,115.38z"/>
	<path class="st2" d="M7.19,110.56v50.82h42.57v-4.95C49.76,132.18,30.99,112.31,7.19,110.56z"/>
	<path class="st2" d="M208.81,166.24h-42.57v42.57h0C189.75,208.81,208.81,189.75,208.81,166.24L208.81,166.24z"/>
	<path class="st2" d="M156.43,166.24c-24.25,0-44.12,18.76-45.87,42.57h50.82v-42.57H156.43z"/>
	<path class="st2" d="M59.57,166.24h-4.95v42.57h50.82C103.69,185.01,83.82,166.24,59.57,166.24z"/>
	<path class="st2" d="M7.19,166.24L7.19,166.24c0,23.51,19.06,42.57,42.57,42.57h0v-42.57H7.19z"/>
</g>
</svg>
