<?xml version="1.0" encoding="utf-8"?>
<!-- Generator: Adobe Illustrator 28.2.0, SVG Export Plug-In . SVG Version: 6.00 Build 0)  -->
<svg version="1.1" id="Layer_1" xmlns="http://www.w3.org/2000/svg" xmlns:xlink="http://www.w3.org/1999/xlink" x="0px" y="0px"
	 viewBox="0 0 1070.32 213.04" style="enable-background:new 0 0 1070.32 213.04;" xml:space="preserve">
<style type="text/css">
	.st0{fill:#1B1C1E;}
	.st1{fill:#BD2D87;}
	.st2{fill:#FFFFFF;}
</style>
<g>
	<g>
		<path class="st2" d="M184.74,191.03H21.38V22.01h163.36c55.94,0,93.31,31.65,93.31,84.62S240.68,191.03,184.74,191.03z
			 M227.06,106.63c0-29.18-14.85-45.79-44.55-45.79H72.61v91.35h109.9C212.21,152.19,227.06,135.81,227.06,106.63z"/>
		<path class="st2" d="M418.91,22.01l99.75,169.01h-55.2l-17.08-29.63H334.26l-17.08,29.63h-55.2l100-169.01H418.91z M425.35,124.59
			l-34.9-60.38l-35.15,60.38H425.35z"/>
		<path class="st2" d="M534.2,22.01h51.24v169.01H534.2V22.01z"/>
		<path class="st2" d="M810.84,136.71c0,29.63-20.05,54.32-65.1,54.32h-76.48c-50,0-67.32-25.36-67.32-55.44h51.24
			c0,10.77,5.2,16.61,18.32,16.61h71.78c11.39,0,16.58-3.14,16.58-11.67c0-8.98-3.47-14.59-18.56-14.59h-71.53
			c-49.5,0-67.82-22.89-67.82-51.4c0-30.97,26.73-52.52,69.55-52.52h68.31c49.5,0,68.56,25.14,68.56,55.66h-50.74
			c0-13.24-7.67-16.83-20.05-16.83h-67.82c-10.39,0-16.58,3.82-16.58,12.35c0,8.75,5.94,13.92,20.05,13.92h70.54
			C789.56,87.1,810.84,105.51,810.84,136.71z"/>
		<path class="st2" d="M1048.94,22.01l-98.26,103.47v65.54h-50.99v-65.54L801.18,22.01h59.16l64.11,69.36l65.59-69.36H1048.94z"/>
	</g>
</g>
</svg>
